<?xml version="1.0" encoding="UTF-8"?>
<!DOCTYPE svg PUBLIC "-//W3C//DTD SVG 1.1//EN" "http://www.w3.org/Graphics/SVG/1.1/DTD/svg11.dtd">
<svg xmlns="http://www.w3.org/2000/svg" style="background-color: rgba(0,0,0,0.1);" xmlns:xlink="http://www.w3.org/1999/xlink" version="1.1" width="48px" height="51px" viewBox="-0.5 -0.5 48 51"><defs/><g><rect x="0" y="0" width="47" height="50" fill="none" stroke="none" pointer-events="all"/><path d="M 13.44 14.39 C 13.36 10.61 14.62 6.96 16.93 4.25 C 19.23 1.55 22.39 0.01 25.69 0 C 33.05 0.08 39.05 6.48 39.32 14.54 C 39.6 18.24 38.49 21.91 36.24 24.69 C 34 27.46 30.83 29.1 27.46 29.23 C 20.01 29.39 13.79 22.81 13.44 14.39 Z M 0 50 C 0.3 42.97 2.88 36.42 7.14 31.94 C 10.51 28.56 15.21 28.36 18.75 31.44 C 20.77 32.95 22.99 34.17 25.35 35.06 C 27.76 36.12 30.41 35.94 32.73 34.56 C 34 33.94 35.12 33.04 36.03 31.94 C 36.92 30.86 38.47 30.64 39.62 31.44 C 41.64 32.81 43.46 35.24 44.88 38.48 C 46.26 42.16 46.98 46.05 47 49.99 Z" fill="rgb(255, 255, 255)" stroke="rgb(0, 0, 0)" stroke-miterlimit="10" pointer-events="all"/></g></svg>